HIERARCHY
ROOT Hips
{
	OFFSET 0.00000 0.00000 0.00000
	CHANNELS 6 Xposition Yposition Zposition Zrotation Yrotation Xrotation 
	JOINT LHipJoint
	{
		OFFSET 0 0 0
		CHANNELS 3 Zrotation Yrotation Xrotation
		JOINT LeftHip
		{
			OFFSET 1.59801 -1.77853 0.57028
			CHANNELS 3 Zrotation Yrotation Xrotation
			JOINT LeftKnee
			{
				OFFSET 2.39439 -6.57854 0.00000
				CHANNELS 3 Zrotation Yrotation Xrotation
				JOINT LeftAnkle
				{
					OFFSET 2.69334 -7.39989 0.00000
					CHANNELS 3 Zrotation Yrotation Xrotation
					JOINT LeftToe
					{
						OFFSET 0.09553 -0.26245 1.73747
						CHANNELS 3 Zrotation Yrotation Xrotation
						End Site
						{
							OFFSET 0.00000 -0.00000 0.89391
						}
					}
				}
			}
		}
	}
	JOINT RHipJoint
	{
		OFFSET 0 0 0
		CHANNELS 3 Zrotation Yrotation Xrotation
		JOINT RightHip
		{
			OFFSET -1.54704 -1.77852 0.57028
			CHANNELS 3 Zrotation Yrotation Xrotation
			JOINT RightKnee
			{
				OFFSET -2.40286 -6.60180 0.00000
				CHANNELS 3 Zrotation Yrotation Xrotation
				JOINT RightAnkle
				{
					OFFSET -2.63873 -7.24984 0.00000
					CHANNELS 3 Zrotation Yrotation Xrotation
					JOINT RightToe
					{
						OFFSET -0.15631 -0.42945 1.84436
						CHANNELS 3 Zrotation Yrotation Xrotation
						End Site
						{
							OFFSET -0.00000 -0.00000 0.95734
						}
					}
				}
			}
		}
	}
	JOINT lowerback
	{
		OFFSET 0 0 0
		CHANNELS 3 Zrotation Yrotation Xrotation
		JOINT Chest
		{
			OFFSET -0.00436 1.89866 -0.04018
			CHANNELS 3 Zrotation Yrotation Xrotation
			JOINT Chest2
			{
				OFFSET 0.02031 1.88273 0.09634
				CHANNELS 3 Zrotation Yrotation Xrotation
				JOINT lowerneck
				{
					OFFSET 0 0 0
					CHANNELS 3 Zrotation Yrotation Xrotation
					JOINT Neck
					{
						OFFSET -0.13105 1.89371 0.23083
						CHANNELS 3 Zrotation Yrotation Xrotation
						JOINT Head
						{
							OFFSET 0.17062 1.83990 -0.54062
							CHANNELS 3 Zrotation Yrotation Xrotation
							End Site
							{
								OFFSET 0.04576 1.94782 -0.21839
							}
						}
					}
				}
				JOINT LeftCollar
				{
					OFFSET 0 0 0
					CHANNELS 3 Zrotation Yrotation Xrotation
					JOINT LeftShoulder
					{
						OFFSET 3.12424 1.09204 0.22226
CHANNELS 3 Zrotation Xrotation Yrotation
						JOINT LeftElbow
						{
OFFSET 0 -5.292770 0.000000
CHANNELS 3 Zrotation Xrotation Yrotation
							JOINT LeftWrist
							{
OFFSET 0 -2.852260 0.000000
CHANNELS 3 Zrotation Xrotation Yrotation
								JOINT lhand
								{
									OFFSET 0 0 0
CHANNELS 3 Zrotation Xrotation Yrotation
									JOINT LFingers
									{
OFFSET 0 -0.602100 0.000000
CHANNELS 3 Zrotation Xrotation Yrotation
										End Site
										{
OFFSET 0 -0.485430 0.000000
										}
									}
								}
								JOINT LThumb
								{
OFFSET 0 0.000000 0.000000
CHANNELS 3 Zrotation Xrotation Yrotation
									End Site
									{
OFFSET 0 -0.492840 0.492840
									}
								}
							}
						}
					}
				}
				JOINT RightCollar
				{
					OFFSET 0 0 0
					CHANNELS 3 Zrotation Yrotation Xrotation
					JOINT RightShoulder
					{
						OFFSET -2.91709 1.01504 0.30199
CHANNELS 3 Zrotation Xrotation Yrotation
						JOINT RightElbow
						{
OFFSET 0 -5.133040 0.000000
CHANNELS 3 Zrotation Xrotation Yrotation
							JOINT RightWrist
							{
OFFSET 0 -2.743050 0.000000
CHANNELS 3 Zrotation Xrotation Yrotation
								JOINT rhand
								{
									OFFSET 0 0 0
CHANNELS 3 Zrotation Xrotation Yrotation
									JOINT RFingers
									{
OFFSET 0 -0.767980 0.000000
CHANNELS 3 Zrotation Xrotation Yrotation
										End Site
										{
OFFSET 0 -0.619160 0.000000
										}
									}
								}
								JOINT RThumb
								{
OFFSET 0 0.000000 0.000000
CHANNELS 3 Zrotation Xrotation Yrotation
									End Site
									{
OFFSET 0 -0.628620 0.628620
									}
								}
							}
						}
					}
				}
			}
		}
	}
}
MOTION
Frames: 9
Frame Time: 0.008333333333333333
0.026800 17.404800 -0.065000 -3.081500 2.795000 -0.170800 0.000000 0.000000 0.000000 -17.801400 -20.021000 6.977600 0.800400 5.710200 15.945700 0.579100 8.151000 -19.589300 1.074700 -6.589800 -18.505800 0.000000 0.000000 0.000000 23.310600 8.795600 11.993100 0.000000 0.000000 -0.000000 0.102100 -9.279700 -11.212400 -1.794000 8.423200 -24.006900 -1.399200 -0.576500 -1.430800 2.101400 -0.779500 1.541600 2.918300 -0.434100 2.433600 -19.710000 -11.234600 -9.469800 28.115100 -16.427100 8.151000 10.967100 -7.151400 8.439400 0.000000 0.000000 0.000000 -2.293200 -3.775100 -27.951800 7.969000 -13.502600 0.944900 8.213100 21.762500 -22.540400 0.000000 0.000000 0.000000 -7.125000 0.000000 0.000000 -20.912900 51.510200 3.481100 0.000000 0.000000 0.000000 -2.836700 0.223200 24.217300 -10.914500 -18.157100 -1.749200 -9.168700 32.774000 -10.910000 0.000000 0.000000 0.000000 7.125000 0.000000 -0.000000 12.594700 19.069200 7.983000
0.024064 17.411170 -0.060880 -2.868940 2.727713 -0.232845 0.000000 0.000000 0.000000 -18.025602 -19.763079 7.362374 0.738608 5.490463 15.312849 0.476366 8.594753 -18.895932 1.351321 -7.358960 -20.783262 0.000000 0.000000 0.000000 23.073587 8.776482 12.233939 0.000000 0.000000 0.000000 0.069859 -8.943577 -11.362171 -1.583702 7.938920 -22.528870 -1.544559 -0.580578 -1.375961 2.100089 -0.781152 1.501647 2.999434 -0.436275 2.363776 -19.840007 -10.901742 -8.864459 27.550116 -15.881870 8.045584 10.886416 -6.972781 8.082799 0.000000 0.000000 0.000000 -2.550422 -3.846008 -26.861308 7.886262 -13.368310 0.925664 7.606237 23.214331 -23.178161 0.000000 0.000000 0.000000 -7.125000 0.000000 0.000000 -21.820535 52.003000 3.916304 0.000000 0.000000 0.000000 -2.837705 0.186705 23.782202 -10.887027 -18.114848 -1.740595 -9.003974 33.097872 -10.804735 0.000000 0.000000 0.000000 7.125000 0.000000 0.000000 12.715241 19.180063 8.031113
0.024380 17.407675 -0.051800 -2.569258 2.672636 -0.346224 0.000000 0.000000 0.000000 -18.433330 -19.633233 7.809129 0.694269 5.326459 14.842096 0.452035 8.745620 -18.771771 1.358697 -7.378112 -20.840573 0.000000 0.000000 0.000000 22.769271 8.771479 12.400387 0.000000 0.000000 0.000000 0.071561 -8.954621 -11.344333 -1.629707 8.047935 -22.859795 -1.639032 -0.648316 -1.464416 1.998478 -0.865689 1.402796 2.944266 -0.477535 2.316988 -19.886684 -10.499257 -8.174077 26.617335 -15.354893 8.642489 10.671539 -6.799368 7.889671 0.000000 0.000000 0.000000 -2.771436 -3.831847 -24.916498 7.646988 -12.979069 0.871136 8.229388 25.007617 -22.357192 0.000000 0.000000 0.000000 -7.125000 0.000000 0.000000 -20.804756 51.341662 3.373349 0.000000 0.000000 0.000000 -2.705296 0.251598 23.240083 -10.759943 -17.919410 -1.701348 -9.079540 33.457917 -10.984307 0.000000 0.000000 0.000000 7.125000 0.000000 0.000000 12.652688 18.999621 8.041733
0.018187 17.403633 -0.042123 -2.589326 2.614859 -0.555905 0.000000 0.000000 0.000000 -18.443216 -19.420480 8.023299 0.694744 5.328160 14.846977 0.461466 8.664152 -18.798039 1.359224 -7.379459 -20.844499 0.000000 0.000000 0.000000 22.860339 8.715177 12.682849 0.000000 0.000000 0.000000 0.067747 -8.976776 -11.460732 -1.576946 7.922695 -22.479723 -1.521131 -0.627692 -1.526197 2.048111 -0.841254 1.344504 2.929570 -0.462877 2.289160 -20.024583 -10.230669 -7.974252 25.489754 -15.154225 10.533057 10.373657 -6.728802 8.277501 0.000000 0.000000 0.000000 -2.946211 -3.721415 -24.390320 7.635422 -12.960160 0.868539 8.398205 25.354143 -22.482339 0.000000 0.000000 0.000000 -7.125000 0.000000 0.000000 -20.708414 51.486313 3.431978 0.000000 0.000000 0.000000 -2.683465 0.316113 22.761250 -10.818547 -18.009638 -1.719417 -8.957179 33.234582 -10.913792 0.000000 0.000000 0.000000 7.125000 0.000000 0.000000 12.741726 19.074530 8.079411
0.016844 17.401098 -0.025265 -2.593852 2.640135 -0.724235 0.000000 0.000000 0.000000 -18.493209 -19.270758 8.248785 0.691502 5.316052 14.812276 0.478315 8.579912 -18.903773 1.382379 -7.439520 -21.024200 0.000000 0.000000 0.000000 22.907341 8.602564 12.886631 0.000000 0.000000 0.000000 0.079374 -9.007180 -11.259216 -1.756717 8.339504 -23.750296 -1.443797 -0.660935 -1.732645 2.123627 -0.887621 1.278149 2.960417 -0.485315 2.340004 -19.755424 -10.024913 -8.340039 23.756448 -15.038574 13.377378 9.771600 -6.668589 9.026448 0.000000 0.000000 0.000000 -3.090846 -3.570578 -24.374611 7.637971 -12.964323 0.869110 8.259013 24.913835 -22.381712 0.000000 0.000000 0.000000 -7.125000 0.000000 0.000000 -20.789116 51.369386 3.384981 0.000000 0.000000 0.000000 -2.853055 0.479968 22.832423 -10.899188 -18.133598 -1.744401 -8.754459 32.763593 -11.071190 0.000000 0.000000 0.000000 7.125000 0.000000 0.000000 12.873836 18.928074 8.210711
0.011531 17.398730 -0.017221 -2.536607 2.729276 -0.907934 0.000000 0.000000 0.000000 -18.589529 -19.154490 8.457643 0.689767 5.309545 14.793462 0.469468 8.505712 -18.736325 1.416785 -7.527890 -21.288989 0.000000 0.000000 0.000000 22.892899 8.424094 13.083201 0.000000 0.000000 0.000000 0.075137 -9.039214 -11.402397 -1.669501 8.140422 -23.141739 -1.555532 -0.689378 -1.679501 2.143026 -0.923023 1.257936 3.042761 -0.504216 2.293870 -19.516895 -9.808647 -8.388140 22.965742 -14.848967 14.807348 9.515345 -6.585527 9.359807 0.000000 0.000000 0.000000 -3.059600 -3.280713 -24.717109 7.858307 -13.322911 0.919213 7.805906 24.077796 -22.537871 0.000000 0.000000 0.000000 -7.125000 0.000000 0.000000 -21.296311 51.441237 3.512806 0.000000 0.000000 0.000000 -2.840253 0.616419 22.792148 -10.953813 -18.217419 -1.761427 -8.755972 32.468941 -10.972099 0.000000 0.000000 0.000000 7.125000 0.000000 0.000000 12.878296 19.025640 8.185021
0.005149 17.396600 -0.013359 -2.333701 2.945860 -0.875210 0.000000 0.000000 0.000000 -18.765837 -19.211284 8.521844 0.672623 5.244274 14.606650 0.469445 8.381357 -18.618663 1.354314 -7.366705 -20.806366 0.000000 0.000000 0.000000 22.663264 8.213642 13.039085 0.000000 0.000000 0.000000 0.057271 -8.952271 -11.642366 -1.563769 7.891088 -22.383867 -1.764074 -0.694611 -1.659147 2.080930 -0.923383 1.266977 3.096372 -0.507378 2.294161 -19.321551 -9.761624 -8.264716 22.757169 -14.774276 14.762313 9.411252 -6.560228 9.263971 0.000000 0.000000 0.000000 -2.915038 -3.164518 -25.442328 7.990132 -13.536882 0.949793 7.626636 23.066909 -22.635352 0.000000 0.000000 0.000000 -7.125000 0.000000 0.000000 -21.515781 51.502533 3.585275 0.000000 0.000000 0.000000 -2.799078 0.771292 22.975609 -11.102828 -18.445664 -1.808356 -8.734702 32.003526 -10.968454 0.000000 0.000000 0.000000 7.125000 0.000000 0.000000 12.893286 19.030118 8.193761
-0.001307 17.394717 -0.006657 -2.245313 3.157284 -0.894902 0.000000 0.000000 0.000000 -18.826773 -19.173814 8.547317 0.666660 5.221636 14.541740 0.455855 8.314810 -18.403844 1.451720 -7.616171 -21.554062 0.000000 0.000000 0.000000 22.572407 7.983714 13.047024 0.000000 0.000000 0.000000 0.053128 -8.930863 -11.693963 -1.506176 7.751347 -21.961371 -1.865266 -0.690637 -1.443999 2.089760 -0.917844 1.303540 3.164924 -0.505632 2.212364 -19.403177 -9.869579 -8.493834 22.745527 -14.856252 14.649351 9.392196 -6.590493 9.296929 0.000000 0.000000 0.000000 -2.935401 -3.116737 -25.527898 8.012508 -13.573186 0.955048 7.630088 22.992436 -22.494684 0.000000 0.000000 0.000000 -7.125000 0.000000 0.000000 -21.439844 51.372263 3.501015 0.000000 0.000000 0.000000 -2.860404 0.761511 22.902227 -11.071275 -18.397395 -1.798337 -8.728963 31.953087 -11.107396 0.000000 0.000000 0.000000 7.125000 0.000000 0.000000 12.889428 18.893411 8.231386
-0.011992 17.396267 0.000956 -2.059323 3.396483 -0.801561 0.000000 0.000000 0.000000 -18.923242 -19.170480 8.557389 0.642748 5.129003 14.276840 0.452495 8.156673 -18.216933 1.447550 -7.605449 -21.522126 0.000000 0.000000 0.000000 22.376436 7.776469 12.927143 0.000000 0.000000 0.000000 0.046601 -8.861448 -11.721565 -1.528262 7.805229 -22.124163 -2.101428 -0.692137 -1.356372 2.064617 -0.915124 1.357059 3.272975 -0.508650 2.221589 -19.446765 -9.975485 -8.828048 22.646056 -14.933492 14.700741 9.336214 -6.612319 9.391750 0.000000 0.000000 0.000000 -2.949493 -3.224497 -25.322962 7.953725 -13.477800 0.941305 7.813618 23.441256 -22.601841 0.000000 0.000000 0.000000 -7.125000 0.000000 0.000000 -21.321992 51.501986 3.550165 0.000000 0.000000 0.000000 -2.903378 0.661530 22.896186 -11.057708 -18.376630 -1.794060 -8.751133 31.956878 -11.186140 0.000000 0.000000 0.000000 7.125000 0.000000 0.000000 12.869616 18.814881 8.241134
